<svg xmlns="http://www.w3.org/2000/svg" xmlns:xlink="http://www.w3.org/1999/xlink" viewBox="0 0 128 128"><defs><clipPath id="clip-path"><polygon points="-72.64 -334.83 -78.4 -334.83 -74.8 -357.54 -69.04 -357.54 -72.64 -334.83" fill="none" clip-rule="evenodd"/></clipPath><clipPath id="clip-path-2"><path d="M-51.78-357a13.89,13.89,0,0,0-5.16-1c-5.68,0-9.69,3.09-9.71,7.51,0,3.26,2.86,5.08,5,6.16s3,1.84,3,2.83c0,1.52-1.8,2.22-3.46,2.22a11.33,11.33,0,0,1-5.4-1.2l-.76-.37-.8,5.1a17,17,0,0,0,6.42,1.21c6,0,10-3,10-7.76,0-2.58-1.51-4.56-4.83-6.18-2-1-3.24-1.74-3.24-2.81s1-1.95,3.31-1.95a9.59,9.59,0,0,1,4.29.87l.52.24Z" fill="none" clip-rule="evenodd"/></clipPath><clipPath id="clip-path-3"><path d="M-37-357.54h-4.45a2.83,2.83,0,0,0-3,1.88L-53-334.83h6l1.21-3.41h7.39l.68,3.41h5.33Zm-7.11,14.67c.48-1.31,2.3-6.36,2.3-6.36s.47-1.33.76-2.17l.4,1.95s1.09,5.44,1.33,6.58Z" fill="none"/></clipPath><clipPath id="clip-path-4"><path d="M-83.21-357.54-88.85-342l-.61-3.14a17.24,17.24,0,0,0-8-9.52l5.16,19.86h6.09l9-22.69Z" fill="none" clip-rule="evenodd"/></clipPath><clipPath id="clip-path-5"><path d="M-94.08-357.54h-9.26l-.1.46c7.23,1.88,12,6.43,14,11.89l-2-10.44A2.4,2.4,0,0,0-94.08-357.54Z" fill="none" clip-rule="evenodd"/></clipPath><clipPath id="clip-path-6"><path d="M-73.45-188.85a1.31,1.31,0,0,1,1.35-1.22,1.3,1.3,0,0,1,1.25,1.32,1.3,1.3,0,0,1-1.29,1.27,1.28,1.28,0,0,1-1-.4,1.29,1.29,0,0,1-.36-1Zm3.48,0V-191h-.93v.52a1.65,1.65,0,0,0-1.35-.62,2.24,2.24,0,0,0-2.25,2.23,2.24,2.24,0,0,0,2.25,2.24,1.66,1.66,0,0,0,1.35-.63v.52H-70Zm31.59,0A1.31,1.31,0,0,1-37-190.07a1.3,1.3,0,0,1,1.25,1.32,1.3,1.3,0,0,1-1.29,1.27,1.33,1.33,0,0,1-1-.4A1.32,1.32,0,0,1-38.38-188.85Zm5,1.82v.1h.1a0,0,0,0,0,0,0,0,0,0,0,0,0,0,0,0,0,0,0,0,0h0Zm.1-.08.12,0a.18.18,0,0,1,0,.1.09.09,0,0,1,0,.08.13.13,0,0,1-.09,0l.13.15h-.1l-.12-.15h0v.15h-.09v-.4Zm0,.53a.28.28,0,0,0,.13,0,.26.26,0,0,0,.11-.07.33.33,0,0,0,0-.44l-.11-.08-.13,0-.13,0-.11.08a.33.33,0,0,0,0,.44.26.26,0,0,0,.11.07.4.4,0,0,0,.15,0Zm0-.75a.32.32,0,0,1,.17,0,.42.42,0,0,1,.14.09.45.45,0,0,1,.1.13.47.47,0,0,1,0,.33.71.71,0,0,1-.1.14l-.14.08a.33.33,0,0,1-.17,0,.44.44,0,0,1-.4-.26.38.38,0,0,1,0-.33.3.3,0,0,1,.09-.13.42.42,0,0,1,.14-.09.31.31,0,0,1,.19,0Zm-1.56-1.52v-3.85h-.9v2.23a1.63,1.63,0,0,0-1.35-.62,2.24,2.24,0,0,0-2.25,2.23,2.24,2.24,0,0,0,2.25,2.24,1.64,1.64,0,0,0,1.35-.63v.52h.9Zm-23.44-1.41a1.06,1.06,0,0,1,.76.29,1.06,1.06,0,0,1,.33.74h-2.25a1.11,1.11,0,0,1,1.14-1Zm0-.83a2.24,2.24,0,0,0-2.22,2.26,2.25,2.25,0,0,0,2.28,2.21,2.68,2.68,0,0,0,1.79-.58l-.45-.69a2,2,0,0,1-1.25.44,1.19,1.19,0,0,1-1.29-1h3.2v-.36a2,2,0,0,0-2-2.24Zm11.29,2.23a1.29,1.29,0,0,1,1.35-1.21,1.3,1.3,0,0,1,1.25,1.31,1.3,1.3,0,0,1-1.29,1.27,1.33,1.33,0,0,1-1-.4A1.32,1.32,0,0,1-47.07-188.86Zm3.48,0V-191h-.93v.52a1.64,1.64,0,0,0-1.35-.62,2.24,2.24,0,0,0-2.25,2.23,2.24,2.24,0,0,0,2.25,2.24,1.65,1.65,0,0,0,1.35-.63v.52h.93Zm-8.76,0a2.13,2.13,0,0,0,.65,1.62,2.19,2.19,0,0,0,1.65.62,2.31,2.31,0,0,0,1.54-.51l-.45-.75a1.89,1.89,0,0,1-1.12.38,1.37,1.37,0,0,1-1.27-1.37,1.38,1.38,0,0,1,1.27-1.37,1.9,1.9,0,0,1,1.12.39l.45-.75a2.21,2.21,0,0,0-1.54-.51,2.18,2.18,0,0,0-1.65.61,2.16,2.16,0,0,0-.65,1.62Zm12.06-2.23a1.26,1.26,0,0,0-1.14.62V-191h-.92v4.28h.93v-2.4c0-.71.31-1.1.9-1.1a1.51,1.51,0,0,1,.59.11l.28-.9a2.12,2.12,0,0,0-.66-.11Zm-25.06.44a3.19,3.19,0,0,0-1.76-.44c-1.09,0-1.8.51-1.8,1.36,0,.7.53,1.13,1.49,1.26l.45.07c.51.07.75.2.75.44s-.34.52-1,.52a2.31,2.31,0,0,1-1.43-.44l-.45.72a3.11,3.11,0,0,0,1.87.55c1.24,0,2-.58,2-1.39s-.57-1.15-1.51-1.28l-.45-.06c-.4-.06-.72-.14-.72-.42s.3-.5.81-.5a2.75,2.75,0,0,1,1.35.36Zm12.06-.44a1.25,1.25,0,0,0-1.13.62V-191h-.93v4.28h.94v-2.4c0-.71.3-1.1.9-1.1a1.43,1.43,0,0,1,.58.11l.29-.9a2.14,2.14,0,0,0-.67-.11Zm-8,.1h-1.54v-1.29h-.94V-191h-.86v.85h.88v2c0,1,.38,1.58,1.49,1.58a2.2,2.2,0,0,0,1.17-.33l-.27-.79a1.86,1.86,0,0,1-.83.24c-.45,0-.62-.29-.62-.72v-1.95h1.53Zm-14,4.28v-2.69a1.59,1.59,0,0,0-.46-1.22,1.6,1.6,0,0,0-1.23-.47,1.68,1.68,0,0,0-1.52.76,1.54,1.54,0,0,0-1.42-.76,1.41,1.41,0,0,0-1.26.63V-191h-.93v4.28h.94v-2.35a1,1,0,0,1,.26-.82,1,1,0,0,1,.79-.32c.63,0,.94.4.94,1.13v2.38h.95v-2.37a1,1,0,0,1,.25-.82,1,1,0,0,1,.8-.32c.64,0,.94.4.94,1.13v2.38Z" fill="none"/></clipPath><clipPath id="clip-path-7"><rect x="-65.66" y="-223.56" width="14.17" height="25.31" fill="none"/></clipPath><clipPath id="clip-path-8"><path d="M-64.76-210.9a16,16,0,0,1,6.18-12.66,16.26,16.26,0,0,0-21.9,1.74,16,16,0,0,0,0,21.84,16.26,16.26,0,0,0,21.9,1.73A16,16,0,0,1-64.76-210.9Z" fill="none" clip-rule="evenodd"/></clipPath><clipPath id="clip-path-9"><path d="M-32.38-210.9a16.11,16.11,0,0,1-9.11,14.48,16.29,16.29,0,0,1-17.09-1.83,16,16,0,0,0,6.19-12.65,16.06,16.06,0,0,0-6.19-12.66,16.29,16.29,0,0,1,17.09-1.82,16.09,16.09,0,0,1,9.11,14.48Z" fill="none" clip-rule="evenodd"/></clipPath><clipPath id="clip-path-10"><path d="M-32.75-200.29v-1.27h-.17l-.21.91-.21-.91h-.16v1.27h.13v-1l.19.82H-33l.19-.82v1Zm-1.14,0v-1.05h.23v-.22h-.59v.22H-34v1.05Z" fill="none"/></clipPath></defs><title>ic_cards</title><g id="Container"><rect width="128" height="128" fill="none"/></g><g id="Layer_4" data-name="Layer 4"><path d="M106,54H76V40a6,6,0,0,0-6-6H22a6,6,0,0,0-6,6V68a6,6,0,0,0,6,6H52V88a6,6,0,0,0,6,6h48a6,6,0,0,0,6-6V60A6,6,0,0,0,106,54ZM20,40a2,2,0,0,1,2-2H70a2,2,0,0,1,2,2v6H20Zm2,30a2,2,0,0,1-2-2V50H72V68a2,2,0,0,1-2,2Zm86,18a2,2,0,0,1-2,2H58a2,2,0,0,1-2-2V74H70a6.11,6.11,0,0,0,.86-.07l.18,0a7.16,7.16,0,0,0,.8-.19l.09,0a5.78,5.78,0,0,0,.72-.31l.1,0a6.59,6.59,0,0,0,.72-.44l.06,0a6.57,6.57,0,0,0,1.25-1.22v0A6.1,6.1,0,0,0,75.65,70H108Zm0-22H76V58h30a2,2,0,0,1,2,2Z" fill="#16cdff"/></g></svg>